<svg width="630" height="225" viewBox="0 0 630 225" fill="none" xmlns="http://www.w3.org/2000/svg">
<ellipse opacity="0.05" cx="315" cy="200.375" rx="315" ry="21" fill="#007369"/>
<g filter="url(#filter0_d_1152_13624)">
<path d="M182.096 125.375V166.875H162.096V200.625H109.346V166.875H34.5957V129.125L77.0957 25.375H131.596L91.8457 125.375H109.346V91.875H162.096V125.375H182.096Z" fill="white"/>
</g>
<g filter="url(#filter1_d_1152_13624)">
<path d="M316.694 20.3047C317.946 20.3047 329.327 20.4306 343.365 24.7938C351.277 27.2529 358.604 30.6081 365.145 34.7662C373.18 39.8732 380.076 46.2339 385.643 53.6717C389.359 58.6381 392.557 64.1827 395.146 70.1508C397.312 75.1413 399.066 80.4542 400.362 85.9437C402.573 95.3105 402.936 103.167 402.802 106.333C402.75 107.55 402.712 108.778 402.676 109.966C402.652 110.755 402.627 111.571 402.598 112.369C402.485 115.493 402.379 118.159 402.293 120.301C401.856 131.172 401.788 132.843 403.642 135.673C404.756 137.375 406.08 138.589 407.248 139.66C409.009 141.276 409.486 141.838 409.487 142.719C409.487 142.792 409.487 142.877 409.487 142.956C409.242 143.092 408.688 143.33 407.588 143.525C406.336 143.747 404.728 143.854 402.673 143.854C400.94 143.854 399.188 143.779 397.493 143.708C396.056 143.647 394.698 143.589 393.543 143.589H393.525C391.667 143.589 387.838 143.6 387.059 147.004C386.75 148.356 386.964 150.317 389.735 151.99C390.595 152.508 391.669 153.02 392.912 153.611C394.793 154.506 396.927 155.522 398.526 156.673C400.211 157.887 400.294 158.529 400.294 158.539C400.291 158.564 400.252 158.663 400.225 158.734C400.01 159.3 398.953 159.928 397.399 160.414C395.292 161.073 392.585 161.409 390.196 161.705C388.367 161.932 386.639 162.146 385.238 162.493C382.527 163.164 380.93 164.505 380.488 166.479C379.686 170.067 383.268 172.078 384.445 172.738C386.134 173.686 388.39 174.654 391.001 175.775C398.613 179.043 410.115 183.98 411.343 190.919C411.365 191.063 411.898 194.76 409.901 197.387C408.918 198.682 407.39 199.58 405.234 200.132C402.926 200.723 400.196 200.833 398.202 200.913C397.678 200.934 397.159 200.945 396.658 200.945C392.453 200.945 389.468 200.217 385.336 199.21C383.574 198.781 381.579 198.294 379.278 197.821C372.17 196.359 367.179 196.048 358.12 195.485C355.935 195.349 353.853 195.28 351.93 195.279C344.869 195.279 340.387 196.197 336.053 197.083C331.592 197.996 326.979 198.94 319.024 198.94C318.395 198.94 317.744 198.934 317.09 198.922C299.797 198.614 284.68 194.902 284.53 194.864C282.123 194.264 280.327 193.743 278.743 193.284C275.201 192.255 272.86 191.576 268.65 191.513C268.441 191.51 268.235 191.508 268.03 191.508C264 191.508 260.745 192.095 257.873 192.612C255.686 193.006 253.796 193.347 251.998 193.347C250.304 193.347 248.786 193.033 247.219 192.359C246.135 191.892 243.879 190.922 243.133 189C242.473 187.299 243.183 185.441 243.237 185.306C243.871 183.883 245.131 183.125 247.299 181.912C249.819 180.503 252.954 178.749 254.728 174.872C255.586 172.996 255.83 171.245 255.474 169.517C254.958 167.023 253.222 164.914 250.313 163.251C246.792 161.237 241.893 160.065 236.707 158.825C230.766 157.403 224.622 155.933 221.283 153.327C220.576 152.775 218.698 151.309 218.584 149.666C218.557 149.27 218.636 148.942 218.716 148.673C219.344 146.56 221.287 144.275 223.343 141.855C225.576 139.227 228.107 136.249 229.607 132.686C230.917 129.574 230.825 124.372 230.601 111.804C230.568 109.98 230.515 108.173 230.444 106.436L230.44 106.341C230.427 106.005 230.142 97.9686 232.925 86.4255C234.267 80.8576 236.093 75.4576 238.354 70.3754C241.079 64.2495 244.457 58.5463 248.393 53.4238C254.062 46.0458 260.997 39.7348 269.006 34.6659C275.518 30.5436 282.771 27.2156 290.566 24.7736C304.304 20.4695 315.413 20.3094 316.634 20.3055H316.698" fill="#04B585"/>
<path d="M216.475 148.353C217.668 148.724 219.644 149.319 222.107 149.956C236.105 153.575 241.681 152.295 249.349 156.868C253.4 159.285 255.116 161.595 255.99 163.781C256.342 164.661 257.35 167.291 256.532 170.557C255.699 173.885 253.492 175.788 252.737 176.386C254.598 173.22 254.525 171.1 254.093 169.744C252.671 165.286 245.578 163.522 235.796 161.206C227.949 159.348 224.968 159.526 221.565 156.598C218.616 154.061 217.208 150.79 216.475 148.353V148.353Z" fill="#50E2BB"/>
<path d="M247.451 180.18C246.332 181.258 244.675 183.389 244.877 184.788C245.192 186.981 250.162 187.968 252.331 188.312C261.069 189.698 265.108 187.136 272.254 186.821C278.489 186.546 279.307 188.325 291.228 191.158C291.228 191.158 303.506 194.076 315.082 194.817C334.398 196.055 334.429 189.334 352.624 189.938C373.657 190.636 387.591 194.952 387.591 194.952C388.539 195.246 395.692 197.481 403.448 195.224C408.693 193.697 409.615 191.456 409.818 190.887C411.001 187.574 408.119 184.095 407.785 183.704C408.829 184.619 410.32 186.163 411.444 188.447C412.002 189.58 414.196 194.036 412.664 197.663C410.641 202.451 403.225 203.189 400.195 203.491C394.113 204.096 391.12 202.531 383.254 200.78C373.506 198.61 365.809 198.276 361.026 198.069C354.064 197.767 349.021 198.184 338.934 199.018C322.356 200.388 323.521 201.489 316.707 201.186C313.579 201.047 314.995 200.889 291.837 197.052C291.037 196.92 285.681 196.037 278.555 195.087C272 194.213 268.678 193.778 266.492 193.867C259.644 194.147 258.459 196.082 252.194 195.697C248.498 195.47 245.224 195.22 242.978 192.647C240.911 190.28 240.06 186.342 241.622 183.431C243.529 179.878 248.462 178.911 248.603 179.162C248.649 179.246 248.173 179.483 247.451 180.178L247.451 180.18Z" fill="#50E2BB"/>
<path d="M380.936 169.625C380.612 169.604 379.054 163.917 381.831 161.002C384.179 158.539 388.627 159.092 392.403 157.275C394.448 156.29 395.958 155.176 396.875 154.429C398.883 154.571 400.498 155.553 400.941 156.936C401.55 158.836 399.709 160.744 399.383 161.07C396.98 163.464 392.779 163.605 387.592 163.781C385.289 163.859 384.013 163.812 382.848 164.797C380.84 166.498 381.179 169.642 380.937 169.625H380.936Z" fill="#50E2BB"/>
<path d="M387.956 150.529C387.516 149.961 385.108 146.759 386.168 144.264C386.168 144.264 387.555 141.044 395.588 140.672C396.265 140.641 396.356 140.702 397.434 140.685C400.633 140.631 402.29 140.603 403.975 139.882C406.159 138.947 406.229 137.81 407.582 137.826C409.044 137.844 410.649 139.377 410.767 140.876C410.93 142.944 408.075 144.958 405.685 145.755C400.243 147.57 396.757 143.563 392.403 145.484C390.946 146.127 389.28 147.491 387.956 150.529Z" fill="#50E2BB"/>
<path d="M414.866 190.313C412.415 176.316 383.084 171.252 383.977 167.259C384.643 164.281 401.109 166.454 403.566 160.008C403.682 159.701 403.876 159.195 403.868 158.497C403.808 152.717 390.139 149.57 390.544 147.801C390.656 147.308 391.81 147.166 393.541 147.166C395.902 147.166 399.339 147.431 402.671 147.431C407.291 147.431 411.712 146.921 412.8 144.49C413.064 143.899 413.063 143.347 413.062 142.715C413.059 138.619 408.976 137.291 406.633 133.714C405.142 131.437 405.541 130.057 406.172 112.498C406.245 110.494 406.29 108.489 406.375 106.484C406.636 100.327 405.318 73.9933 388.506 51.5289C363.06 17.5285 320.337 16.7288 316.694 16.7288C316.666 16.7288 316.641 16.7288 316.619 16.7288C313.156 16.7404 271.434 17.5627 245.553 51.2445C227.727 74.4441 226.652 101.213 226.863 106.485C226.876 106.811 226.97 108.949 227.022 111.868C227.224 123.212 227.325 128.884 226.308 131.299C223.658 137.596 216.924 142.147 215.285 147.653C215.134 148.159 214.947 148.942 215.014 149.912C215.236 153.147 218.069 155.357 219.079 156.146C226.123 161.644 241.524 162.347 248.535 166.357C251.145 167.849 251.781 169.336 251.969 170.242C252.187 171.3 251.953 172.337 251.473 173.384C248.925 178.953 242.265 178.624 239.951 183.886C239.881 184.044 238.573 187.141 239.796 190.294C241.057 193.548 244.29 194.993 245.803 195.645C248.005 196.592 250.008 196.924 251.996 196.924C256.668 196.924 261.24 195.086 268.029 195.086C268.215 195.086 268.404 195.088 268.595 195.09C274.047 195.172 275.834 196.384 283.664 198.335C283.664 198.335 299.084 202.18 317.025 202.499C317.713 202.511 318.377 202.517 319.022 202.517C335.079 202.517 338.029 198.856 351.929 198.857C353.719 198.857 355.692 198.918 357.897 199.055C366.901 199.615 371.695 199.913 378.557 201.325C386.091 202.874 390.066 204.521 396.657 204.521C397.2 204.521 397.762 204.51 398.344 204.487C403.221 204.291 409.4 203.956 412.748 199.553C415.724 195.636 414.908 190.547 414.868 190.315L414.866 190.313ZM409.899 197.386C408.915 198.681 407.388 199.579 405.231 200.132C402.924 200.722 400.193 200.832 398.2 200.912C397.676 200.933 397.157 200.944 396.656 200.944C392.451 200.944 389.466 200.216 385.333 199.209C383.572 198.78 381.576 198.293 379.276 197.82C372.167 196.358 367.177 196.047 358.118 195.484C355.933 195.348 353.851 195.279 351.928 195.279C344.867 195.279 340.385 196.196 336.051 197.083C331.589 197.995 326.977 198.939 319.021 198.939C318.392 198.939 317.742 198.933 317.088 198.921C299.795 198.614 284.678 194.901 284.528 194.864C282.12 194.264 280.325 193.742 278.741 193.283C275.198 192.255 272.858 191.575 268.647 191.512C268.439 191.509 268.232 191.508 268.028 191.508C263.997 191.508 260.742 192.094 257.871 192.611C255.684 193.005 253.794 193.346 251.996 193.346C250.302 193.346 248.784 193.032 247.217 192.358C246.132 191.892 243.876 190.921 243.131 189C242.471 187.298 243.181 185.44 243.234 185.305C243.868 183.882 245.129 183.124 247.297 181.912C249.816 180.502 252.952 178.748 254.726 174.871C255.584 172.995 255.828 171.244 255.471 169.517C254.956 167.022 253.22 164.913 250.311 163.25C246.789 161.236 241.891 160.064 236.705 158.824C230.764 157.402 224.62 155.933 221.28 153.326C220.573 152.774 218.695 151.308 218.581 149.665C218.554 149.27 218.633 148.941 218.713 148.672C219.341 146.559 221.284 144.274 223.34 141.854C225.573 139.227 228.104 136.248 229.604 132.685C230.914 129.574 230.822 124.371 230.598 111.803C230.565 109.979 230.512 108.173 230.441 106.435L230.437 106.341C230.424 106.004 230.139 97.9678 232.922 86.4247C234.264 80.8568 236.09 75.4568 238.351 70.3747C241.076 64.2487 244.454 58.5456 248.39 53.423C254.059 46.045 260.994 39.7341 269.003 34.6651C275.515 30.5428 282.768 27.2148 290.563 24.7728C304.302 20.4687 315.41 20.3086 316.631 20.3047H316.695C317.946 20.3047 329.328 20.4306 343.366 24.7938C351.278 27.2529 358.605 30.6081 365.146 34.7662C373.181 39.8732 380.077 46.2338 385.643 53.6717C389.36 58.6381 392.557 64.1827 395.147 70.1508C397.312 75.1413 399.067 80.4542 400.363 85.9436C402.574 95.3105 402.937 103.167 402.803 106.333C402.751 107.55 402.713 108.778 402.677 109.966C402.653 110.755 402.628 111.571 402.599 112.369C402.486 115.493 402.38 118.159 402.293 120.301C401.857 131.172 401.789 132.843 403.643 135.673C404.757 137.375 406.081 138.589 407.249 139.66C409.01 141.276 409.487 141.838 409.488 142.719C409.488 142.792 409.488 142.877 409.488 142.956C409.242 143.092 408.689 143.33 407.589 143.525C406.336 143.747 404.729 143.854 402.674 143.854C400.94 143.854 399.189 143.779 397.494 143.708C396.056 143.647 394.699 143.589 393.544 143.589H393.526C391.668 143.589 387.839 143.6 387.06 147.004C386.751 148.356 386.965 150.317 389.736 151.99C390.596 152.508 391.67 153.02 392.913 153.611C394.794 154.506 396.928 155.522 398.526 156.673C400.212 157.887 400.294 158.528 400.294 158.539C400.291 158.564 400.253 158.663 400.226 158.734C400.011 159.3 398.954 159.928 397.399 160.414C395.293 161.073 392.585 161.409 390.197 161.705C388.367 161.932 386.64 162.146 385.239 162.493C382.528 163.164 380.93 164.505 380.489 166.479C379.687 170.067 383.269 172.078 384.446 172.738C386.135 173.686 388.391 174.654 391.002 175.775C398.614 179.043 410.116 183.98 411.344 190.919C411.366 191.063 411.899 194.76 409.902 197.387L409.899 197.386Z" fill="#E6F8F3"/>
<path d="M307.911 75.7397C307.988 75.571 308.06 75.4024 308.133 75.2329C307.268 76.7874 306.271 78.1856 305.185 79.3957C301.269 83.7612 296.234 85.6918 292.396 83.8094C288.557 81.927 287.002 76.7633 288.055 70.9941C288.347 69.3954 288.842 67.75 289.542 66.1155C289.452 66.2764 289.363 66.4365 289.277 66.6005C289.166 66.8104 289.058 67.021 288.952 67.2363C285.088 75.1156 286.131 83.5506 291.283 86.0773C296.434 88.604 303.743 84.2641 307.606 76.3848C307.712 76.1695 307.812 75.9542 307.91 75.7389L307.911 75.7397Z" fill="#50E2BB"/>
<path d="M305.905 56.2637C300.863 53.7906 293.757 57.8974 289.834 65.4612C289.733 65.6796 289.636 65.898 289.542 66.1171C288.842 67.7524 288.347 69.3969 288.055 70.9957C288.304 70.3358 288.582 69.6752 288.894 69.0161C288.943 68.9135 288.989 68.8109 289.04 68.7083C292.904 60.829 299.921 56.3469 304.712 58.6964C309.504 61.0466 310.255 69.3386 306.392 77.218C306.341 77.3206 306.288 77.42 306.237 77.5211C305.907 78.1716 305.555 78.7965 305.185 79.3965C306.27 78.1864 307.268 76.7882 308.133 75.2338C308.248 75.0255 308.362 74.8148 308.472 74.6011C312.051 66.8687 310.947 58.736 305.905 56.2629V56.2637Z" fill="#007369"/>
<path d="M303.1 61.9832C307.362 64.0731 308.547 70.6552 306.237 77.5203C306.288 77.4193 306.341 77.3198 306.392 77.2172C310.256 69.3379 309.504 61.0459 304.712 58.6956C299.921 56.3461 292.904 60.8282 289.04 68.7076C288.989 68.8101 288.943 68.9127 288.894 69.0153C292.909 62.9858 298.839 59.8933 303.1 61.9832Z" fill="#222222"/>
<path d="M303.1 61.9831C298.839 59.8932 292.909 62.9857 288.894 69.0153C288.582 69.6744 288.304 70.335 288.055 70.9948C287.001 76.764 288.557 81.9278 292.396 83.8102C296.234 85.6926 301.269 83.7612 305.185 79.3964C305.555 78.7957 305.908 78.1716 306.237 77.521C308.547 70.656 307.362 64.073 303.1 61.9839V61.9831Z" fill="#222222"/>
<path d="M360.097 110.248C360.174 110.079 360.247 109.91 360.319 109.741C359.455 111.295 358.457 112.694 357.372 113.904C353.455 118.269 348.42 120.2 344.582 118.317C340.743 116.435 339.188 111.271 340.241 105.502C340.533 103.903 341.029 102.258 341.728 100.624C341.639 100.784 341.549 100.945 341.463 101.109C341.353 101.318 341.244 101.529 341.138 101.744C337.274 109.624 338.318 118.059 343.469 120.585C348.62 123.112 355.929 118.772 359.793 110.893C359.898 110.677 359.999 110.462 360.097 110.247L360.097 110.248Z" fill="#50E2BB"/>
<path d="M358.092 90.7709C353.051 88.2986 345.944 92.4045 342.021 99.9683C341.92 100.187 341.823 100.405 341.729 100.624C341.029 102.26 340.534 103.904 340.242 105.503C340.491 104.843 340.769 104.182 341.082 103.523C341.131 103.421 341.176 103.318 341.227 103.215C345.091 95.3362 352.108 90.854 356.899 93.2035C361.691 95.5538 362.442 103.846 358.579 111.725C358.528 111.828 358.475 111.927 358.424 112.028C358.095 112.679 357.742 113.304 357.373 113.904C358.458 112.694 359.456 111.295 360.32 109.741C360.436 109.533 360.549 109.322 360.659 109.108C364.238 101.376 363.134 93.2431 358.092 90.7701V90.7709Z" fill="#007369"/>
<path d="M355.287 96.4903C359.548 98.5802 360.733 105.162 358.423 112.027C358.475 111.926 358.528 111.827 358.578 111.724C362.442 103.845 361.691 95.553 356.899 93.2027C352.107 90.8532 345.09 95.3354 341.226 103.215C341.176 103.317 341.13 103.42 341.081 103.522C345.095 97.4929 351.025 94.4004 355.287 96.4903Z" fill="#222222"/>
<path d="M355.287 96.4903C351.025 94.4004 345.095 97.4929 341.081 103.522C340.768 104.182 340.49 104.842 340.241 105.502C339.187 111.271 340.743 116.435 344.582 118.317C348.421 120.2 353.455 118.268 357.372 113.904C357.741 113.303 358.094 112.679 358.423 112.028C360.733 105.163 359.548 98.5802 355.287 96.4911V96.4903Z" fill="#222222"/>
<path d="M368.048 153.244C360.061 150.91 351.846 149.478 343.782 147.449C315.535 142.028 288.826 117.434 276.65 95.4722C274.993 93.673 273.716 95.3626 273.61 97.4945L273.589 97.294C273.474 98.379 273.406 99.4585 273.38 100.532C273.947 102.667 274.707 105.031 275.739 107.535C284.872 129.704 305.833 140.002 313.01 143.044C324.259 147.813 337.986 150.166 339.167 150.363C344.472 151.249 349.695 152.617 355.025 153.345C362.64 154.384 368.041 154.559 369.594 157.885C370.093 158.954 370.081 160.104 369.883 161.125C370.439 160.419 370.909 159.611 371.274 158.682C371.63 156.363 369.806 154.42 368.047 153.244H368.048Z" fill="#007369"/>
<path d="M322.634 165.768C324.588 164.411 326.429 165.189 331.308 164.774C336.128 164.364 335.601 163.489 340.298 162.967C342.145 162.762 346.032 162.68 353.806 162.516C354.484 162.502 357.459 162.439 359.159 160.641C359.459 160.324 360.028 159.706 359.86 159.083C359.797 158.85 359.639 158.645 359.411 158.479C359.347 158.567 359.253 158.634 359.141 158.665C355.445 159.803 351.459 160.189 347.605 160.088C339.513 160.472 330.726 160.016 323.079 163.022C320.37 164.145 318.07 167.032 320.215 169.512C320.791 167.495 321.724 166.4 322.633 165.77L322.634 165.768Z" fill="#007369"/>
<path d="M327.512 167.53C327.461 168.101 330.391 169.122 332.933 169.473C336.683 169.99 339.032 170.151 339.032 170.151C339.778 170.202 340.853 170.263 341.607 171.055C341.881 171.342 342.057 171.67 342.172 171.988C342.908 171.533 343.172 170.562 342.593 169.782C339.97 167.867 336.872 167.255 333.623 166.788C333.742 166.744 333.861 166.702 333.981 166.662C328.869 166.786 327.546 167.159 327.512 167.532V167.53Z" fill="#007369"/>
<path d="M369.596 157.885C368.043 154.559 362.642 154.384 355.026 153.345C349.697 152.617 344.474 151.249 339.169 150.363C337.987 150.166 324.26 147.813 313.011 143.044C305.834 140.001 284.872 129.703 275.74 107.535C274.709 105.031 273.95 102.667 273.381 100.532C272.85 122.76 291.032 142.08 311.789 148.084C320.855 150.655 329.971 152.717 339.297 154.081C346.056 154.566 352.647 155.963 359.171 157.731C359.368 157.798 359.503 157.98 359.507 158.182C359.51 158.291 359.475 158.394 359.412 158.479C359.639 158.645 359.797 158.85 359.86 159.083C360.029 159.707 359.46 160.324 359.16 160.641C357.46 162.439 354.484 162.502 353.807 162.516C346.032 162.68 342.145 162.762 340.299 162.967C335.601 163.489 336.128 164.364 331.309 164.774C326.43 165.189 324.589 164.411 322.634 165.768C321.726 166.399 320.793 167.494 320.217 169.51C320.365 169.681 320.533 169.851 320.725 170.018C323.832 172.38 327.931 172.269 331.628 172.444C334.922 172.509 338.288 172.535 341.587 172.213C341.805 172.172 342.002 172.093 342.173 171.987C342.058 171.669 341.883 171.342 341.608 171.054C340.854 170.263 339.78 170.201 339.034 170.15C339.034 170.15 336.684 169.99 332.935 169.472C330.392 169.122 327.462 168.101 327.514 167.529C327.547 167.156 328.87 166.784 333.982 166.66C337.641 165.446 341.615 166.375 345.418 166.109C352.688 165.425 364.855 167.518 369.886 161.124C370.083 160.103 370.095 158.953 369.596 157.884L369.596 157.885Z" fill="#50E2BB"/>
<path d="M274.655 96.8276C276.639 100.258 279.519 104.949 283.352 110.29C285.713 113.581 288.14 116.705 289.767 118.648C299.807 130.637 313.224 138.036 317.213 140.13C327.494 145.529 337.176 148.26 344.793 149.685C348.801 150.679 352.089 151.419 354.416 151.921C357.247 152.533 360.586 153.196 365.326 154.429C366.139 154.64 366.805 154.819 367.238 154.936C367.447 155.051 369.912 156.446 369.799 158.291C369.704 159.832 367.874 160.772 366.275 161.544C362.922 163.163 359.823 163.319 358.482 163.374C351.975 163.638 344.484 163.775 344.183 163.78C340.188 163.853 337.38 164.011 333.883 165.203C332.347 165.726 331.129 166.301 330.316 166.719C330.208 166.823 329.842 167.197 329.93 167.575C330.002 167.886 330.329 168.124 330.597 168.156C331.956 168.317 333.889 168.594 336.187 169.088C337.081 169.281 341.559 170.246 341.496 170.715C341.481 170.825 341.214 170.945 338.65 170.986C335.236 171.041 332.656 170.864 331.241 170.76C327.238 170.468 326.2 170.266 325.04 169.88C323.911 169.503 321.564 168.723 321.482 167.417C321.45 166.908 321.773 166.461 322.069 166.152C322.619 165.737 323.475 165.153 324.605 164.628C326.134 163.916 327.473 163.632 330.707 163.142C332.929 162.805 334.039 162.637 335.604 162.461C337.576 162.24 341.042 161.891 346.126 161.635C350.352 161.423 350.713 161.525 352.745 161.274C355.724 160.906 358.123 160.294 359.703 159.828C359.818 159.758 360.496 159.332 360.652 158.495C360.792 157.736 360.446 156.939 359.771 156.462C357.219 155.207 355.046 154.538 353.536 154.158C352.924 154.004 352.142 153.828 348.793 153.277C346.105 152.835 344.761 152.614 342.558 152.305C338.305 151.71 329.823 150.266 323.652 148.849C316.661 147.244 311.725 146.111 305.604 143.36C300.981 141.282 293.637 137.895 286.72 130.507C284.83 128.489 280.843 123.898 277.684 117.067C276.311 114.097 274.478 110.04 273.957 104.372C273.694 101.511 273.842 99.0885 274.047 97.3468C273.967 97.109 274.067 96.8665 274.25 96.7818C274.443 96.6924 274.644 96.8183 274.657 96.8269L274.655 96.8276Z" fill="#222222"/>
<path d="M367.238 154.937C366.804 154.82 366.139 154.64 365.326 154.43C360.585 153.197 357.247 152.534 354.416 151.922C352.089 151.419 348.8 150.68 344.793 149.686C337.176 148.261 327.494 145.53 317.213 140.131C313.224 138.037 299.807 130.638 289.767 118.649C288.14 116.705 285.713 113.582 283.352 110.291C279.52 104.95 276.639 100.258 274.655 96.8284C274.641 96.8199 274.441 96.694 274.249 96.7834C274.066 96.8681 273.965 97.1106 274.045 97.3484C273.905 98.5406 273.792 100.052 273.818 101.805C274.455 103.286 275.089 104.59 275.672 105.706C278.166 110.477 282.448 115.872 282.448 115.872C284.478 118.427 287.983 122.798 293.494 127.731C299.153 132.794 304.033 135.861 306.979 137.692C311.431 140.46 318.382 144.788 327.716 147.654C333.644 149.474 341.682 150.971 345.274 151.555C345.534 151.598 345.738 151.63 345.877 151.653C348.931 152.139 352.831 152.605 358.21 154.092C361.369 154.965 363.914 155.873 365.598 156.516C366.108 156.828 367.352 157.688 367.833 159.243C367.97 159.684 368.03 160.145 368.024 160.611C368.979 160.007 369.738 159.272 369.798 158.294C369.912 156.448 367.447 155.054 367.238 154.939V154.937Z" fill="#222222"/>
</g>
<g filter="url(#filter2_d_1152_13624)">
<path d="M584.096 125.375V166.875H564.096V200.625H511.346V166.875H436.596V129.125L479.096 25.375H533.596L493.846 125.375H511.346V91.875H564.096V125.375H584.096Z" fill="white"/>
</g>
<defs>
<filter id="filter0_d_1152_13624" x="18.5957" y="13.375" width="179.5" height="207.25" filterUnits="userSpaceOnUse" color-interpolation-filters="sRGB">
<feFlood flood-opacity="0" result="BackgroundImageFix"/>
<feColorMatrix in="SourceAlpha" type="matrix" values="0 0 0 0 0 0 0 0 0 0 0 0 0 0 0 0 0 0 127 0" result="hardAlpha"/>
<feOffset dy="4"/>
<feGaussianBlur stdDeviation="8"/>
<feComposite in2="hardAlpha" operator="out"/>
<feColorMatrix type="matrix" values="0 0 0 0 0 0 0 0 0 0 0 0 0 0 0 0 0 0 0.05 0"/>
<feBlend mode="normal" in2="BackgroundImageFix" result="effect1_dropShadow_1152_13624"/>
<feBlend mode="normal" in="SourceGraphic" in2="effect1_dropShadow_1152_13624" result="shape"/>
</filter>
<filter id="filter1_d_1152_13624" x="199" y="4.72876" width="232" height="219.792" filterUnits="userSpaceOnUse" color-interpolation-filters="sRGB">
<feFlood flood-opacity="0" result="BackgroundImageFix"/>
<feColorMatrix in="SourceAlpha" type="matrix" values="0 0 0 0 0 0 0 0 0 0 0 0 0 0 0 0 0 0 127 0" result="hardAlpha"/>
<feOffset dy="4"/>
<feGaussianBlur stdDeviation="8"/>
<feComposite in2="hardAlpha" operator="out"/>
<feColorMatrix type="matrix" values="0 0 0 0 0 0 0 0 0 0 0 0 0 0 0 0 0 0 0.05 0"/>
<feBlend mode="normal" in2="BackgroundImageFix" result="effect1_dropShadow_1152_13624"/>
<feBlend mode="normal" in="SourceGraphic" in2="effect1_dropShadow_1152_13624" result="shape"/>
</filter>
<filter id="filter2_d_1152_13624" x="420.596" y="13.375" width="179.5" height="207.25" filterUnits="userSpaceOnUse" color-interpolation-filters="sRGB">
<feFlood flood-opacity="0" result="BackgroundImageFix"/>
<feColorMatrix in="SourceAlpha" type="matrix" values="0 0 0 0 0 0 0 0 0 0 0 0 0 0 0 0 0 0 127 0" result="hardAlpha"/>
<feOffset dy="4"/>
<feGaussianBlur stdDeviation="8"/>
<feComposite in2="hardAlpha" operator="out"/>
<feColorMatrix type="matrix" values="0 0 0 0 0 0 0 0 0 0 0 0 0 0 0 0 0 0 0.05 0"/>
<feBlend mode="normal" in2="BackgroundImageFix" result="effect1_dropShadow_1152_13624"/>
<feBlend mode="normal" in="SourceGraphic" in2="effect1_dropShadow_1152_13624" result="shape"/>
</filter>
</defs>
</svg>
