<?xml version="1.0" standalone="no"?>
<svg xmlns:xlink="http://www.w3.org/1999/xlink" id="wave" style="transform:rotate(0deg); transition: 0.3s" viewBox="0 0 1440 310" version="1.1" xmlns="http://www.w3.org/2000/svg"><defs><linearGradient id="sw-gradient-0" x1="0" x2="0" y1="1" y2="0"><stop stop-color="rgba(0, 177.909, 65.488, 1)" offset="0%"/><stop stop-color="rgba(34, 197, 94, 1)" offset="100%"/></linearGradient></defs><path style="transform:translate(0, 0px); opacity:1" fill="url(#sw-gradient-0)" d="M0,0L120,46.5C240,93,480,186,720,191.2C960,196,1200,114,1440,98.2C1680,83,1920,134,2160,160.2C2400,186,2640,186,2880,180.8C3120,176,3360,165,3600,170.5C3840,176,4080,196,4320,175.7C4560,155,4800,93,5040,103.3C5280,114,5520,196,5760,201.5C6000,207,6240,134,6480,129.2C6720,124,6960,186,7200,206.7C7440,227,7680,207,7920,180.8C8160,155,8400,124,8640,98.2C8880,72,9120,52,9360,72.3C9600,93,9840,155,10080,175.7C10320,196,10560,176,10800,149.8C11040,124,11280,93,11520,108.5C11760,124,12000,186,12240,186C12480,186,12720,124,12960,113.7C13200,103,13440,145,13680,170.5C13920,196,14160,207,14400,186C14640,165,14880,114,15120,98.2C15360,83,15600,103,15840,108.5C16080,114,16320,103,16560,118.8C16800,134,17040,176,17160,196.3L17280,217L17280,310L17160,310C17040,310,16800,310,16560,310C16320,310,16080,310,15840,310C15600,310,15360,310,15120,310C14880,310,14640,310,14400,310C14160,310,13920,310,13680,310C13440,310,13200,310,12960,310C12720,310,12480,310,12240,310C12000,310,11760,310,11520,310C11280,310,11040,310,10800,310C10560,310,10320,310,10080,310C9840,310,9600,310,9360,310C9120,310,8880,310,8640,310C8400,310,8160,310,7920,310C7680,310,7440,310,7200,310C6960,310,6720,310,6480,310C6240,310,6000,310,5760,310C5520,310,5280,310,5040,310C4800,310,4560,310,4320,310C4080,310,3840,310,3600,310C3360,310,3120,310,2880,310C2640,310,2400,310,2160,310C1920,310,1680,310,1440,310C1200,310,960,310,720,310C480,310,240,310,120,310L0,310Z"/></svg>